<?xml version="1.0" encoding="UTF-8"?>
<svg id="Layer_1" data-name="Layer 1" xmlns="http://www.w3.org/2000/svg" xmlns:xlink="http://www.w3.org/1999/xlink" viewBox="0 0 259.35 124.95">
  <defs>
    <style>
      .cls-1 {
        fill: url(#Split_Complementary_1);
      }

      .cls-2 {
        fill: url(#Split_Complementary_1-4);
      }

      .cls-3 {
        fill: url(#Split_Complementary_1-2);
      }

      .cls-4 {
        fill: url(#Split_Complementary_1-3);
      }

      .cls-5 {
        fill: url(#Split_Complementary_1-5);
      }
    </style>
    <linearGradient id="Split_Complementary_1" data-name="Split Complementary 1" x1="93.6" y1="66.07" x2="137.4" y2="66.07" gradientUnits="userSpaceOnUse">
      <stop offset="0" stop-color="#0080c8"/>
      <stop offset=".49" stop-color="#833594"/>
      <stop offset="1" stop-color="#f2981f"/>
    </linearGradient>
    <linearGradient id="Split_Complementary_1-2" data-name="Split Complementary 1" x1="144.26" y1="72.69" x2="179.63" y2="72.69" xlink:href="#Split_Complementary_1"/>
    <linearGradient id="Split_Complementary_1-3" data-name="Split Complementary 1" x1="184.64" y1="72.69" x2="216.26" y2="72.69" xlink:href="#Split_Complementary_1"/>
    <linearGradient id="Split_Complementary_1-4" data-name="Split Complementary 1" x1="221.18" y1="72.69" x2="259.35" y2="72.69" xlink:href="#Split_Complementary_1"/>
    <linearGradient id="Split_Complementary_1-5" data-name="Split Complementary 1" x1="90.25" y1="109.32" x2="253.39" y2="109.32" xlink:href="#Split_Complementary_1"/>
  </defs>
  <path d="M31.29,75.37c-.71-.2-1.15-1.62-1.38-2.29-2.3-6.51-4.61-18.19-5.96-25.23-.28-1.45-1.4-5.06.08-6l58.56-.4c1.03-.24,1.61-8.28,3.07-9.4,1.27-.98,12.03-1.03,13.76-.5,2.05.63,2.71,3.6.79,4.5-2.06.96-10.82-.27-11.41.6l-13.09,51.14-3.36.42c-.04.72.87.5,1.33,1.18,1.37,2.03.96,5.18-1.16,6.55-5.2,3.33-9.79-3.72-5.21-7.73h-24.77c-.03.72.87.51,1.33,1.19,1.37,2.03.96,5.18-1.16,6.55-5.22,3.36-9.78-3.79-5.21-7.73-3.78.81-9.26-1.32-4.61-4.85l39.18-.26c.95-.32,1.98-6.37,2.12-7.74H31.29ZM38.4,46.02h-9.63l2.29,10.09h8.26l-.92-10.09ZM52.62,46.02h-9.17l.92,10.09h8.26v-10.09ZM66.83,46.02h-9.17v10.09h7.57c1.36-2.91.92-6.84,1.61-10.09ZM81.51,46.02h-9.4c-.47.29-.59.63-.68,1.15-.5,2.76-.42,6.11-.92,8.94h8.71l2.29-10.09ZM39.54,60.69h-7.11l2.27,9.89,6.45.2-.99-9.33-.61-.76ZM52.62,60.69h-7.8l1.12,9.66c.64.93,5.33.2,6.68.43v-10.09ZM65,60.69h-7.34v10.09c1.29-.21,5.6.49,6.22-.43l1.12-9.66ZM77.84,60.69h-7.57c-1.36,2.91-.92,6.84-1.61,10.09h6.88l2.29-10.09Z"/>
  <g>
    <path class="cls-1" d="M134.49,40.33c.89,0,1.6.27,2.13.81.52.54.79,1.2.79,1.99v45.59c0,.93-.31,1.68-.95,2.24-.63.56-1.42.85-2.36.85-.42,0-.87-.09-1.34-.26-.47-.17-.84-.4-1.1-.7l-33.72-41.62,1.58-.81v40.66c0,.78-.28,1.43-.83,1.95-.55.52-1.27.77-2.17.77s-1.6-.26-2.13-.77c-.53-.51-.79-1.16-.79-1.95v-45.74c0-.93.31-1.67.95-2.21.63-.54,1.36-.81,2.21-.81.47,0,.96.09,1.46.26.5.17.88.45,1.14.85l33.17,40.96-.95,1.18v-40.44c0-.78.28-1.45.83-1.99.55-.54,1.25-.81,2.09-.81Z"/>
    <path class="cls-3" d="M163.9,92.55c-3.97,0-7.43-.83-10.37-2.5-2.94-1.67-5.22-3.96-6.84-6.88-1.62-2.92-2.43-6.29-2.43-10.11,0-4.26.85-7.91,2.54-10.92,1.69-3.02,3.9-5.32,6.62-6.91,2.72-1.59,5.6-2.39,8.64-2.39,2.25,0,4.44.42,6.54,1.25,2.11.83,3.97,2.06,5.59,3.68s2.92,3.53,3.9,5.74c.98,2.21,1.5,4.71,1.54,7.5,0,.78-.29,1.43-.88,1.95s-1.28.77-2.06.77h-29.05l-1.32-5.07h28.24l-1.18,1.03v-1.62c-.15-2.01-.8-3.74-1.95-5.18-1.15-1.45-2.55-2.56-4.19-3.35-1.64-.78-3.37-1.18-5.18-1.18-1.47,0-2.93.27-4.38.81-1.45.54-2.75,1.37-3.9,2.5-1.15,1.13-2.08,2.6-2.79,4.41-.71,1.81-1.07,4-1.07,6.54,0,2.84.58,5.34,1.73,7.5,1.15,2.16,2.76,3.86,4.82,5.11,2.06,1.25,4.46,1.87,7.21,1.87,1.72,0,3.21-.22,4.49-.66s2.36-.99,3.27-1.65c.91-.66,1.68-1.33,2.32-2.02.64-.44,1.27-.66,1.91-.66.69,0,1.27.25,1.76.74s.74,1.08.74,1.76c0,.83-.39,1.59-1.18,2.28-1.42,1.52-3.3,2.84-5.63,3.97-2.33,1.13-4.82,1.69-7.46,1.69Z"/>
    <path class="cls-4" d="M187.73,53.35c.93,0,1.71.42,2.35,1.25l25.59,32.65c.39.54.59,1.13.59,1.76,0,.83-.29,1.55-.88,2.13-.59.59-1.28.88-2.06.88-.93,0-1.74-.44-2.43-1.32l-25.59-32.58c-.44-.49-.66-1.08-.66-1.76,0-.88.31-1.6.92-2.17.61-.56,1.33-.85,2.17-.85ZM187.73,91.96c-.64,0-1.28-.24-1.91-.74-.64-.49-.96-1.13-.96-1.91,0-.64.22-1.25.66-1.84l12.06-15.22,3.16,4.85-10.66,13.68c-.59.79-1.37,1.18-2.35,1.18ZM213.24,53.35c.88,0,1.58.27,2.1.81.52.54.77,1.15.77,1.84,0,.34-.06.68-.18.99-.12.32-.31.63-.55.92l-11.99,15.37-3.09-4.49,10.59-14.12c.69-.88,1.47-1.32,2.35-1.32Z"/>
    <path class="cls-2" d="M259.35,72.69c0,3.82-.84,7.23-2.54,10.22-1.69,2.99-3.97,5.34-6.84,7.06s-6.09,2.57-9.67,2.57-6.81-.86-9.71-2.57c-2.89-1.72-5.18-4.07-6.88-7.06-1.69-2.99-2.54-6.4-2.54-10.22s.84-7.23,2.54-10.22c1.69-2.99,3.98-5.34,6.88-7.06,2.89-1.72,6.13-2.57,9.71-2.57s6.8.86,9.67,2.57,5.15,4.07,6.84,7.06c1.69,2.99,2.54,6.4,2.54,10.22ZM253.39,72.69c0-2.84-.58-5.33-1.73-7.46s-2.72-3.82-4.71-5.07c-1.99-1.25-4.2-1.88-6.66-1.88s-4.74.63-6.73,1.88c-1.99,1.25-3.57,2.94-4.74,5.07-1.18,2.13-1.76,4.62-1.76,7.46s.59,5.27,1.76,7.43c1.18,2.16,2.76,3.86,4.74,5.11,1.99,1.25,4.23,1.87,6.73,1.87s4.67-.63,6.66-1.87c1.99-1.25,3.55-2.95,4.71-5.11,1.15-2.16,1.73-4.63,1.73-7.43Z"/>
  </g>
  <path class="cls-5" d="M253.39,94.95l-14.93,27.82c-.33.01-.3,0-.46-.22-.63-.91-3.76-6.87-4.42-6.9-7.38,3.24-15.16,5.63-23.16,6.71-33.07,4.44-98.96-1.8-120.17-25.77.44-.12,1.01.58,1.35.85,25.56,20.54,90.83,24.23,124.14,11.71,2.33-.87,8.59-3.49,10.35-4.9.2-.16.4-.22.44-.53l-4.65-8.19,31.51-.59Z"/>
</svg>