<?xml version="1.0" encoding="UTF-8"?>
<svg id="Layer_1" data-name="Layer 1" xmlns="http://www.w3.org/2000/svg" xmlns:xlink="http://www.w3.org/1999/xlink" viewBox="0 0 277.47 151.05">
  <defs>
    <style>
      .cls-1 {
        fill: url(#Split_Complementary_1);
      }

      .cls-2 {
        fill: url(#Split_Complementary_1-4);
      }

      .cls-3 {
        fill: url(#Split_Complementary_1-2);
      }

      .cls-4 {
        fill: url(#Split_Complementary_1-3);
      }

      .cls-5 {
        fill: url(#Split_Complementary_1-5);
      }
    </style>
    <linearGradient id="Split_Complementary_1" data-name="Split Complementary 1" x1="8.17" y1="41.82" x2="79.34" y2="41.82" gradientUnits="userSpaceOnUse">
      <stop offset="0" stop-color="#0080c8"/>
      <stop offset=".49" stop-color="#833594"/>
      <stop offset="1" stop-color="#f2981f"/>
    </linearGradient>
    <linearGradient id="Split_Complementary_1-2" data-name="Split Complementary 1" x1="90.48" y1="52.57" x2="147.95" y2="52.57" xlink:href="#Split_Complementary_1"/>
    <linearGradient id="Split_Complementary_1-3" data-name="Split Complementary 1" x1="156.08" y1="52.57" x2="207.46" y2="52.57" xlink:href="#Split_Complementary_1"/>
    <linearGradient id="Split_Complementary_1-4" data-name="Split Complementary 1" x1="215.46" y1="52.57" x2="277.47" y2="52.57" xlink:href="#Split_Complementary_1"/>
    <linearGradient id="Split_Complementary_1-5" data-name="Split Complementary 1" x1="2.72" y1="112.08" x2="267.8" y2="112.08" xlink:href="#Split_Complementary_1"/>
  </defs>
  <g>
    <path class="cls-1" d="M74.6,0c1.45,0,2.6.44,3.46,1.31.85.88,1.28,1.95,1.28,3.23v74.08c0,1.52-.51,2.73-1.54,3.64-1.02.92-2.3,1.37-3.84,1.37-.68,0-1.41-.14-2.18-.42-.77-.28-1.37-.66-1.79-1.14L15.21,14.46l2.56-1.31v66.07c0,1.27-.45,2.33-1.34,3.17-.9.84-2.07,1.26-3.52,1.26s-2.6-.42-3.46-1.26c-.85-.83-1.28-1.89-1.28-3.17V4.9c0-1.51.51-2.71,1.54-3.58,1.02-.88,2.22-1.31,3.58-1.31.77,0,1.56.14,2.37.42.81.28,1.43.74,1.86,1.37l53.89,66.55-1.54,1.91V4.54c0-1.27.45-2.35,1.34-3.23.9-.88,2.03-1.31,3.39-1.31Z"/>
    <path class="cls-3" d="M122.39,84.83c-6.45,0-12.07-1.35-16.85-4.06-4.78-2.71-8.48-6.43-11.11-11.17-2.63-4.74-3.94-10.22-3.94-16.43,0-6.93,1.37-12.84,4.12-17.74,2.75-4.9,6.33-8.64,10.75-11.23,4.42-2.59,9.1-3.88,14.04-3.88,3.66,0,7.21.68,10.63,2.03,3.42,1.36,6.45,3.35,9.08,5.98s4.74,5.73,6.33,9.32c1.59,3.58,2.43,7.65,2.51,12.19,0,1.27-.48,2.33-1.43,3.17s-2.07,1.26-3.35,1.26h-47.2l-2.15-8.24h45.88l-1.91,1.67v-2.63c-.24-3.26-1.3-6.07-3.17-8.42-1.87-2.35-4.14-4.16-6.81-5.44-2.67-1.27-5.48-1.91-8.42-1.91-2.39,0-4.76.44-7.11,1.31-2.35.88-4.46,2.23-6.33,4.06-1.87,1.83-3.39,4.22-4.54,7.17-1.15,2.95-1.73,6.49-1.73,10.63,0,4.62.94,8.68,2.81,12.19,1.87,3.51,4.48,6.27,7.83,8.3,3.35,2.03,7.25,3.05,11.71,3.05,2.79,0,5.22-.36,7.29-1.08s3.84-1.61,5.32-2.69c1.47-1.08,2.73-2.17,3.76-3.29,1.03-.72,2.07-1.08,3.11-1.08,1.11,0,2.07.4,2.87,1.2s1.2,1.75,1.2,2.87c0,1.36-.64,2.59-1.91,3.7-2.31,2.47-5.36,4.62-9.14,6.45-3.78,1.83-7.83,2.75-12.13,2.75Z"/>
    <path class="cls-4" d="M161.1,21.15c1.51,0,2.79.68,3.82,2.03l41.58,53.05c.64.88.96,1.83.96,2.87,0,1.36-.48,2.51-1.43,3.46-.96.96-2.07,1.43-3.35,1.43-1.51,0-2.83-.72-3.94-2.15l-41.58-52.93c-.72-.79-1.08-1.75-1.08-2.87,0-1.43.5-2.61,1.49-3.52.99-.91,2.17-1.37,3.52-1.37ZM161.1,83.87c-1.04,0-2.07-.4-3.11-1.2-1.04-.79-1.55-1.83-1.55-3.11,0-1.03.36-2.03,1.08-2.99l19.59-24.73,5.14,7.89-17.32,22.22c-.96,1.28-2.23,1.91-3.82,1.91ZM202.56,21.15c1.43,0,2.57.44,3.4,1.31.84.88,1.26,1.87,1.26,2.99,0,.56-.1,1.1-.3,1.61-.2.52-.5,1.02-.9,1.49l-19.48,24.97-5.02-7.29,17.21-22.94c1.11-1.43,2.39-2.15,3.82-2.15Z"/>
    <path class="cls-2" d="M277.47,52.57c0,6.21-1.37,11.75-4.12,16.61-2.75,4.86-6.45,8.68-11.11,11.47-4.66,2.79-9.9,4.18-15.71,4.18s-11.07-1.39-15.77-4.18c-4.7-2.79-8.42-6.61-11.17-11.47-2.75-4.86-4.12-10.39-4.12-16.61s1.37-11.75,4.12-16.61c2.75-4.86,6.47-8.68,11.17-11.47,4.7-2.79,9.95-4.18,15.77-4.18s11.05,1.39,15.71,4.18c4.66,2.79,8.36,6.61,11.11,11.47,2.75,4.86,4.12,10.39,4.12,16.61ZM267.8,52.57c0-4.62-.94-8.66-2.81-12.13-1.87-3.46-4.42-6.21-7.64-8.24-3.23-2.03-6.83-3.05-10.81-3.05s-7.71,1.02-10.93,3.05c-3.23,2.03-5.79,4.78-7.71,8.24-1.91,3.46-2.87,7.51-2.87,12.13s.96,8.56,2.87,12.07c1.91,3.51,4.48,6.27,7.71,8.3,3.23,2.03,6.87,3.05,10.93,3.05s7.59-1.02,10.81-3.05c3.23-2.03,5.77-4.8,7.64-8.3,1.87-3.5,2.81-7.53,2.81-12.07Z"/>
  </g>
  <path class="cls-5" d="M267.8,88.74l-24.26,45.21c-.53.02-.49,0-.74-.36-1.02-1.48-6.11-11.16-7.19-11.22-11.99,5.26-24.62,9.15-37.64,10.9-53.73,7.21-160.79-2.92-195.25-41.86.72-.2,1.64.94,2.2,1.39,41.53,33.37,147.58,39.37,201.7,19.03,3.78-1.42,13.95-5.67,16.82-7.95.32-.25.65-.36.72-.86l-7.56-13.31,51.19-.96Z"/>
</svg>